REM DIRINDEX 1\2\5,1\2\6,1\2\7,1\2\8,1\3\9,1\3\10,1\3\11,1\4\12,1\4\13,1\4\14,1\4\15,1\4\16
REM DIRNAME cjc034,folder01,folder02,folder03,folder04,folder05,folder06,folder07,folder08,folder09,folder10,folder11,folder12,folder13,folder14,folder15
TITLE ""
FILE "1200_2_sec03_0674_0691.mp3" MP3
  TRACK 01 AUDIO
    TITLE "0:"
    INDEX 01 00:00:00
  TRACK 02 AUDIO
    TITLE "10:cjc034_01383"
    INDEX 01 00:00:15
  TRACK 03 AUDIO
    TITLE "0:"
    INDEX 01 00:01:15
  TRACK 04 AUDIO
    TITLE "9:cjc034_01384"
    INDEX 01 00:01:24
  TRACK 05 AUDIO
    TITLE "0:"
    INDEX 01 00:02:42
  TRACK 06 AUDIO
    TITLE "11:cjc034_01385"
    INDEX 01 00:04:15
  TRACK 07 AUDIO
    TITLE "0:"
    INDEX 01 00:09:00
  TRACK 08 AUDIO
    TITLE "10:cjc034_01386"
    INDEX 01 00:10:04
  TRACK 09 AUDIO
    TITLE "0:"
    INDEX 01 00:11:46
  TRACK 10 AUDIO
    TITLE "9:cjc034_01387"
    INDEX 01 00:11:48
  TRACK 11 AUDIO
    TITLE "0:"
    INDEX 01 00:12:65
  TRACK 12 AUDIO
    TITLE "10:cjc034_01388"
    INDEX 01 00:13:47
  TRACK 13 AUDIO
    TITLE "0:"
    INDEX 01 00:14:45
  TRACK 14 AUDIO
    TITLE "9:cjc034_01389"
    INDEX 01 00:14:49
  TRACK 15 AUDIO
    TITLE "0:"
    INDEX 01 00:15:62
  TRACK 16 AUDIO
    TITLE "10:cjc034_01390"
    INDEX 01 00:16:42
  TRACK 17 AUDIO
    TITLE "0:"
    INDEX 01 00:18:41
  TRACK 18 AUDIO
    TITLE "9:cjc034_01391"
    INDEX 01 00:18:48
  TRACK 19 AUDIO
    TITLE "0:"
    INDEX 01 00:19:52
  TRACK 20 AUDIO
    TITLE "10:cjc034_01392"
    INDEX 01 00:20:36
  TRACK 21 AUDIO
    TITLE "0:"
    INDEX 01 00:21:25
  TRACK 22 AUDIO
    TITLE "9:cjc034_01393"
    INDEX 01 00:21:27
  TRACK 23 AUDIO
    TITLE "0:"
    INDEX 01 00:22:36
  TRACK 24 AUDIO
    TITLE "10:cjc034_01394"
    INDEX 01 00:23:16
  TRACK 25 AUDIO
    TITLE "0:"
    INDEX 01 00:24:41
  TRACK 26 AUDIO
    TITLE "9:cjc034_01395"
    INDEX 01 00:24:47
  TRACK 27 AUDIO
    TITLE "0:"
    INDEX 01 00:25:56
  TRACK 28 AUDIO
    TITLE "10:cjc034_01396"
    INDEX 01 00:26:38
  TRACK 29 AUDIO
    TITLE "0:"
    INDEX 01 00:27:47
  TRACK 30 AUDIO
    TITLE "9:cjc034_01397"
    INDEX 01 00:27:53
  TRACK 31 AUDIO
    TITLE "0:"
    INDEX 01 00:29:03
  TRACK 32 AUDIO
    TITLE "10:cjc034_01398"
    INDEX 01 00:29:64
  TRACK 33 AUDIO
    TITLE "0:"
    INDEX 01 00:31:06
  TRACK 34 AUDIO
    TITLE "9:cjc034_01399"
    INDEX 01 00:31:10
  TRACK 35 AUDIO
    TITLE "0:"
    INDEX 01 00:32:33
  TRACK 36 AUDIO
    TITLE "10:cjc034_01400"
    INDEX 01 00:33:17
  TRACK 37 AUDIO
    TITLE "0:"
    INDEX 01 00:35:51
  TRACK 38 AUDIO
    TITLE "9:cjc034_01401"
    INDEX 01 00:35:59
  TRACK 39 AUDIO
    TITLE "0:"
    INDEX 01 00:37:03
  TRACK 40 AUDIO
    TITLE "10:cjc034_01402"
    INDEX 01 00:37:59
  TRACK 41 AUDIO
    TITLE "0:"
    INDEX 01 00:38:69
  TRACK 42 AUDIO
    TITLE "9:cjc034_01403"
    INDEX 01 00:38:73
  TRACK 43 AUDIO
    TITLE "0:"
    INDEX 01 00:40:24
  TRACK 44 AUDIO
    TITLE "10:cjc034_01404"
    INDEX 01 00:41:08
  TRACK 45 AUDIO
    TITLE "0:"
    INDEX 01 00:42:23
  TRACK 46 AUDIO
    TITLE "9:cjc034_01405"
    INDEX 01 00:42:25
  TRACK 47 AUDIO
    TITLE "0:"
    INDEX 01 00:43:40
  TRACK 48 AUDIO
    TITLE "10:cjc034_01406"
    INDEX 01 00:44:24
  TRACK 49 AUDIO
    TITLE "0:"
    INDEX 01 00:45:26
  TRACK 50 AUDIO
    TITLE "9:cjc034_01407"
    INDEX 01 00:45:32
  TRACK 51 AUDIO
    TITLE "0:"
    INDEX 01 00:46:39
  TRACK 52 AUDIO
    TITLE "10:cjc034_01408"
    INDEX 01 00:47:23
  TRACK 53 AUDIO
    TITLE "0:"
    INDEX 01 00:48:26
  TRACK 54 AUDIO
    TITLE "9:cjc034_01409"
    INDEX 01 00:48:34
  TRACK 55 AUDIO
    TITLE "0:"
    INDEX 01 00:49:41
  TRACK 56 AUDIO
    TITLE "10:cjc034_01410"
    INDEX 01 00:50:25
  TRACK 57 AUDIO
    TITLE "0:"
    INDEX 01 00:51:38
  TRACK 58 AUDIO
    TITLE "9:cjc034_01411"
    INDEX 01 00:51:46
  TRACK 59 AUDIO
    TITLE "0:"
    INDEX 01 00:52:69
  TRACK 60 AUDIO
    TITLE "10:cjc034_01412"
    INDEX 01 00:53:53
  TRACK 61 AUDIO
    TITLE "0:"
    INDEX 01 00:54:50
  TRACK 62 AUDIO
    TITLE "9:cjc034_01413"
    INDEX 01 00:54:56
  TRACK 63 AUDIO
    TITLE "0:"
    INDEX 01 00:55:65
  TRACK 64 AUDIO
    TITLE "10:cjc034_01414"
    INDEX 01 00:56:55
  TRACK 65 AUDIO
    TITLE "0:"
    INDEX 01 00:59:24
  TRACK 66 AUDIO
    TITLE "9:cjc034_01415"
    INDEX 01 00:59:34
  TRACK 67 AUDIO
    TITLE "0:"
    INDEX 01 01:00:45
  TRACK 68 AUDIO
    TITLE "11:cjc034_01416"
    INDEX 01 01:02:22
  TRACK 69 AUDIO
    TITLE "0:"
    INDEX 01 01:07:27
  TRACK 70 AUDIO
    TITLE "10:cjc034_01417"
    INDEX 01 01:08:36
  TRACK 71 AUDIO
    TITLE "0:"
    INDEX 01 01:09:50
  TRACK 72 AUDIO
    TITLE "9:cjc034_01418"
    INDEX 01 01:09:56
  TRACK 73 AUDIO
    TITLE "0:"
    INDEX 01 01:11:00
  TRACK 74 AUDIO
    TITLE "10:cjc034_01419"
    INDEX 01 01:11:60
  TRACK 75 AUDIO
    TITLE "0:"
    INDEX 01 01:12:48
  TRACK 76 AUDIO
    TITLE "9:cjc034_01420"
    INDEX 01 01:12:52
  TRACK 77 AUDIO
    TITLE "0:"
    INDEX 01 01:13:53
